<svg width="36" height="36" viewBox="0 0 36 36" fill="none" xmlns="http://www.w3.org/2000/svg">
<g id="help-square-contained (2)">
<g id="help-square-contained">
<path id="Icon" d="M18 24.7499V24.8092M14.6265 13.8449C14.6265 11.9458 16.1375 10.4062 18.0015 10.4062C19.8654 10.4062 21.3765 11.9458 21.3765 13.8449C21.3765 15.7441 19.8654 17.2837 18.0015 17.2837C18.0015 17.2837 18 18.31 18 19.5761M31.5 9.56247V26.4375C31.5 29.2335 29.2334 31.5 26.4375 31.5H9.5625C6.76656 31.5 4.5 29.2335 4.5 26.4375V9.56247C4.5 6.76655 6.76656 4.5 9.5625 4.5H26.4375C29.2334 4.5 31.5 6.76655 31.5 9.56247Z" stroke="#FFC72C" stroke-width="2" stroke-linecap="round" stroke-linejoin="round"/>
</g>
</g>
</svg>
