<svg width="29" height="29" viewBox="0 0 29 29" fill="none" xmlns="http://www.w3.org/2000/svg">
<g id="home-01">
<g id="Icon">
<path id="Vector" d="M1 10.3567C1 9.818 1.27419 9.3127 1.73583 9.0005L13.1108 1.30796C13.718 0.897348 14.532 0.897348 15.1392 1.30796L26.5142 9.0005C26.9758 9.3127 27.25 9.818 27.25 10.3567V24.7536C27.25 26.1323 26.0747 27.25 24.625 27.25H3.625C2.17525 27.25 1 26.1323 1 24.7536V10.3567Z" stroke="white" stroke-width="2"/>
<path id="Vector_2" d="M17.4062 15.7656C17.4062 17.5778 15.9372 19.0469 14.125 19.0469C12.3128 19.0469 10.8438 17.5778 10.8438 15.7656C10.8438 13.9534 12.3128 12.4844 14.125 12.4844C15.9372 12.4844 17.4062 13.9534 17.4062 15.7656Z" stroke="white" stroke-width="2"/>
</g>
</g>
</svg>
